{"title":"The Ice Harvest.2005.DVDRip.XVid.SWESUB.avi","uid":5523397,"size":738629198,"categoryP":"video","categoryS":"movies","magnet":"?xt=urn:btih:06376dda977cf668593406dd5123a5ff7fe11a19&amp;dn=The+Ice+Harvest.2005.DVDRip.XVid.SWESUB.avi&amp;tr=udp%3A%2F%2Ftracker.openbittorrent.com%3A80&amp;tr=udp%3A%2F%2Fopen.demonii.com%3A1337&amp;tr=udp%3A%2F%2Ftracker.coppersurfer.tk%3A6969&amp;tr=udp%3A%2F%2Fexodus.desync.com%3A6969","seeders":2,"leechers":0,"uploader":"Zen_Bud","files":-1,"time":1272701188,"description":"General\nComplete name                    : The Ice Harvest.avi\nFormat                           : AVI\nFile size                        : 704 MiB\nDuration                         : 1h 24mn\nOverall bit rate                 : 1 162 Kbps\n\nVideo\nID                               : 0\nFormat                           : MPEG-4 Visual\nCodec ID/Hint                    : XviD\nDuration                         : 1h 24mn\nBit rate                         : 1 021 Kbps\nWidth                            : 698 pixels\nHeight                           : 576 pixels\nDisplay aspect ratio             : 16:9\nResolution                       : 8 bits\nColorimetry                      : 4:2:0\nScan type                        : Progressive\nBits/(Pixel*Frame)               : 0.102\nStream size                      : 619 MiB (88%)\nWriting library                  : XviD 1.1.2 (UTC 2006-11-01)\n\nAudio\nID                               : 1\nFormat                           : MPEG Audio\nFormat_Settings_ModeExtension    : MS Stereo\nCodec ID/Hint                    : MP3\nDuration                         : 1h 24mn\nBit rate mode                    : Constant\nBit rate                         : 128 Kbps\nChannel(s)                       : 2 channels\nSampling rate                    : 48.0 KHz\nStream size                      : 77.6 MiB (11%)\n\n\n","torrent":{"xt":"urn:btih:06376dda977cf668593406dd5123a5ff7fe11a19","amp;dn":"The+Ice+Harvest.2005.DVDRip.XVid.SWESUB.avi","amp;tr":["udp%3A%2F%2Ftracker.openbittorrent.com%3A80","udp%3A%2F%2Fopen.demonii.com%3A1337","udp%3A%2F%2Ftracker.coppersurfer.tk%3A6969","udp%3A%2F%2Fexodus.desync.com%3A6969"],"infoHash":"06376dda977cf668593406dd5123a5ff7fe11a19","infoHashBuffer":{"type":"Buffer","data":[6,55,109,218,151,124,246,104,89,52,6,221,81,35,165,255,127,225,26,25]},"announce":[],"urlList":[]}}